<svg width="62" height="62" viewBox="0 0 62 62" fill="none" xmlns="http://www.w3.org/2000/svg">
<path fill-rule="evenodd" clip-rule="evenodd" d="M31 0C25.8859 0.0160367 20.9462 1.86052 17.0733 5.20025C14.105 7.75775 11.9544 11.0902 11.4002 14.4344C4.90575 15.8681 0 21.5256 0 28.3572C0 36.2932 6.6185 42.625 14.6514 42.625H29.0625V22.1146L20.7468 30.4343C20.3829 30.7981 19.8895 31.0024 19.375 31.0024C18.8605 31.0024 18.3671 30.7981 18.0032 30.4343C17.6394 30.0704 17.4351 29.577 17.4351 29.0625C17.4351 28.548 17.6394 28.0546 18.0032 27.6907L29.6282 16.0657C29.8082 15.8853 30.022 15.7422 30.2574 15.6445C30.4928 15.5468 30.7452 15.4965 31 15.4965C31.2548 15.4965 31.5072 15.5468 31.7426 15.6445C31.978 15.7422 32.1918 15.8853 32.3718 16.0657L43.9968 27.6907C44.3606 28.0546 44.5649 28.548 44.5649 29.0625C44.5649 29.577 44.3606 30.0704 43.9968 30.4343C43.6329 30.7981 43.1395 31.0024 42.625 31.0024C42.1105 31.0024 41.6171 30.7981 41.2532 30.4343L32.9375 22.1146V42.625H49.166C56.1952 42.625 62 37.0837 62 30.1204C62 23.7809 57.1873 18.6155 51.0183 17.7436C50.0766 7.74613 41.4238 0 31 0ZM29.0625 56.1875V42.625H32.9375V56.1875C32.9375 56.7014 32.7334 57.1942 32.37 57.5575C32.0067 57.9209 31.5139 58.125 31 58.125C30.4861 58.125 29.9933 57.9209 29.63 57.5575C29.2666 57.1942 29.0625 56.7014 29.0625 56.1875Z" fill="white"/>
</svg>
